G04*
G04 #@! TF.GenerationSoftware,Altium Limited,Altium Designer,23.5.1 (21)*
G04*
G04 Layer_Physical_Order=2*
G04 Layer_Color=16711680*
%FSLAX44Y44*%
%MOMM*%
G71*
G04*
G04 #@! TF.SameCoordinates,3DE8B106-AB94-4B2A-A5C1-010116C31EDB*
G04*
G04*
G04 #@! TF.FilePolarity,Positive*
G04*
G01*
G75*
%ADD10C,0.2540*%
%ADD12C,0.2032*%
%ADD21R,0.9800X0.9300*%
%ADD26R,0.9300X0.9800*%
%ADD54C,0.5080*%
%ADD55C,0.3810*%
%ADD56O,1.0000X1.6000*%
%ADD57O,1.0000X2.1000*%
%ADD58R,1.5240X1.5240*%
%ADD59C,1.5240*%
%ADD60C,2.6000*%
%ADD61C,1.4732*%
G04:AMPARAMS|DCode=62|XSize=1.4732mm|YSize=1.4732mm|CornerRadius=0mm|HoleSize=0mm|Usage=FLASHONLY|Rotation=90.000|XOffset=0mm|YOffset=0mm|HoleType=Round|Shape=Octagon|*
%AMOCTAGOND62*
4,1,8,0.3683,0.7366,-0.3683,0.7366,-0.7366,0.3683,-0.7366,-0.3683,-0.3683,-0.7366,0.3683,-0.7366,0.7366,-0.3683,0.7366,0.3683,0.3683,0.7366,0.0*
%
%ADD62OCTAGOND62*%

%ADD63R,1.7500X1.9000*%
%ADD64O,1.3208X1.5240*%
%ADD65C,0.6350*%
G36*
X1234948Y551316D02*
X1234050Y550418D01*
X929132D01*
Y978916D01*
X1234694D01*
X1234948Y551316D01*
D02*
G37*
%LPC*%
G36*
X1080302Y974275D02*
X1078533Y974042D01*
X1076884Y973359D01*
X1075468Y972272D01*
X1074381Y970856D01*
X1073699Y969207D01*
X1073465Y967438D01*
Y961438D01*
X1073699Y959669D01*
X1074381Y958020D01*
X1075468Y956604D01*
X1076884Y955517D01*
X1078533Y954835D01*
X1080302Y954602D01*
X1082071Y954835D01*
X1083720Y955517D01*
X1085136Y956604D01*
X1086223Y958020D01*
X1086906Y959669D01*
X1087139Y961438D01*
Y967438D01*
X1086906Y969207D01*
X1086223Y970856D01*
X1085136Y972272D01*
X1083720Y973359D01*
X1082071Y974042D01*
X1080302Y974275D01*
D02*
G37*
G36*
X993902D02*
X992133Y974042D01*
X990484Y973359D01*
X989068Y972272D01*
X987981Y970856D01*
X987299Y969207D01*
X987066Y967438D01*
Y961438D01*
X987299Y959669D01*
X987981Y958020D01*
X989068Y956604D01*
X990484Y955517D01*
X992133Y954835D01*
X993902Y954602D01*
X995671Y954835D01*
X997320Y955517D01*
X998736Y956604D01*
X999823Y958020D01*
X1000506Y959669D01*
X1000739Y961438D01*
Y967438D01*
X1000506Y969207D01*
X999823Y970856D01*
X998736Y972272D01*
X997320Y973359D01*
X995671Y974042D01*
X993902Y974275D01*
D02*
G37*
G36*
X1128854Y973910D02*
X1115998D01*
Y960554D01*
X1121263D01*
Y959304D01*
X1121549Y957867D01*
X1122363Y956649D01*
X1124595Y954417D01*
X1125813Y953603D01*
X1127250Y953317D01*
X1129339D01*
Y951484D01*
X1129625Y950047D01*
X1130439Y948829D01*
X1132799Y946469D01*
X1134017Y945655D01*
X1135454Y945369D01*
X1135470D01*
Y941590D01*
X1148826D01*
Y954446D01*
X1138510D01*
X1137805Y955502D01*
X1138047Y956087D01*
Y958057D01*
X1137293Y959878D01*
X1135900Y961271D01*
X1134079Y962025D01*
X1132109D01*
X1130288Y961271D01*
X1130124Y961107D01*
X1128854Y961502D01*
Y973910D01*
D02*
G37*
G36*
X1159643Y939255D02*
X1157673D01*
X1155852Y938501D01*
X1154459Y937108D01*
X1153887Y935726D01*
X1148826D01*
Y939046D01*
X1135470D01*
Y934874D01*
X1128596D01*
Y938194D01*
X1115240D01*
Y925338D01*
X1128596D01*
Y928658D01*
X1135470D01*
Y926190D01*
X1140146D01*
Y910844D01*
X1140383Y909655D01*
X1141057Y908646D01*
X1149013Y900690D01*
X1148550Y899570D01*
X1148262Y897382D01*
Y895350D01*
X1148550Y893162D01*
X1149394Y891123D01*
X1150738Y889372D01*
X1152489Y888028D01*
X1154528Y887184D01*
X1156716Y886896D01*
X1158904Y887184D01*
X1160943Y888028D01*
X1162694Y889372D01*
X1164038Y891123D01*
X1164882Y893162D01*
X1165170Y895350D01*
Y897382D01*
X1164882Y899570D01*
X1164038Y901609D01*
X1162694Y903360D01*
X1160943Y904704D01*
X1158904Y905548D01*
X1156716Y905836D01*
X1154528Y905548D01*
X1153408Y905085D01*
X1146362Y912131D01*
Y926190D01*
X1148826D01*
Y929510D01*
X1155943D01*
X1156849Y929690D01*
X1157673Y929349D01*
X1159643D01*
X1161464Y930103D01*
X1162857Y931496D01*
X1163611Y933317D01*
Y935287D01*
X1162857Y937108D01*
X1161464Y938501D01*
X1159643Y939255D01*
D02*
G37*
G36*
X1066002Y933574D02*
X1063845Y933145D01*
X1062017Y931924D01*
X1060795Y930095D01*
X1060366Y927938D01*
X1060795Y925781D01*
X1062017Y923952D01*
X1063845Y922731D01*
X1066002Y922302D01*
X1068159Y922731D01*
X1069987Y923952D01*
X1071209Y925781D01*
X1071638Y927938D01*
X1071209Y930095D01*
X1069987Y931924D01*
X1068159Y933145D01*
X1066002Y933574D01*
D02*
G37*
G36*
X1008202D02*
X1006045Y933145D01*
X1004217Y931924D01*
X1002995Y930095D01*
X1002566Y927938D01*
X1002995Y925781D01*
X1004217Y923952D01*
X1006045Y922731D01*
X1008202Y922302D01*
X1010359Y922731D01*
X1012188Y923952D01*
X1013409Y925781D01*
X1013838Y927938D01*
X1013409Y930095D01*
X1012188Y931924D01*
X1010359Y933145D01*
X1008202Y933574D01*
D02*
G37*
G36*
X1080302Y934975D02*
X1078533Y934742D01*
X1076884Y934059D01*
X1075468Y932972D01*
X1074381Y931556D01*
X1073699Y929907D01*
X1073465Y928138D01*
Y917138D01*
X1073699Y915369D01*
X1074381Y913720D01*
X1075468Y912304D01*
X1076884Y911217D01*
X1078533Y910535D01*
X1080302Y910302D01*
X1082071Y910535D01*
X1083720Y911217D01*
X1085136Y912304D01*
X1086223Y913720D01*
X1086906Y915369D01*
X1087139Y917138D01*
Y928138D01*
X1086906Y929907D01*
X1086223Y931556D01*
X1085136Y932972D01*
X1083720Y934059D01*
X1082071Y934742D01*
X1080302Y934975D01*
D02*
G37*
G36*
X993902D02*
X992133Y934742D01*
X990484Y934059D01*
X989068Y932972D01*
X987981Y931556D01*
X987299Y929907D01*
X987066Y928138D01*
Y917138D01*
X987299Y915369D01*
X987981Y913720D01*
X989068Y912304D01*
X990484Y911217D01*
X992133Y910535D01*
X993902Y910302D01*
X995671Y910535D01*
X997320Y911217D01*
X998736Y912304D01*
X999823Y913720D01*
X1000506Y915369D01*
X1000739Y917138D01*
Y928138D01*
X1000506Y929907D01*
X999823Y931556D01*
X998736Y932972D01*
X997320Y934059D01*
X995671Y934742D01*
X993902Y934975D01*
D02*
G37*
G36*
X1198450Y922094D02*
X1185594D01*
Y908738D01*
X1190763D01*
X1191188Y907644D01*
X1191188Y907468D01*
Y885088D01*
X1212244D01*
Y907644D01*
X1198875D01*
X1198450Y908738D01*
X1198450Y908914D01*
Y911800D01*
X1200825D01*
X1201916Y910709D01*
X1203737Y909955D01*
X1205707D01*
X1207528Y910709D01*
X1208921Y912102D01*
X1209675Y913923D01*
Y915893D01*
X1208921Y917714D01*
X1207528Y919107D01*
X1205707Y919861D01*
X1203737D01*
X1201916Y919107D01*
X1200825Y918016D01*
X1198450D01*
Y922094D01*
D02*
G37*
G36*
X1136716Y905836D02*
X1134528Y905548D01*
X1132489Y904704D01*
X1130738Y903360D01*
X1129394Y901609D01*
X1128550Y899570D01*
X1128262Y897382D01*
Y895350D01*
X1128550Y893162D01*
X1129394Y891123D01*
X1130738Y889372D01*
X1132489Y888028D01*
X1134528Y887184D01*
X1136716Y886896D01*
X1138904Y887184D01*
X1140943Y888028D01*
X1142694Y889372D01*
X1144038Y891123D01*
X1144882Y893162D01*
X1145170Y895350D01*
Y897382D01*
X1144882Y899570D01*
X1144038Y901609D01*
X1142694Y903360D01*
X1140943Y904704D01*
X1138904Y905548D01*
X1136716Y905836D01*
D02*
G37*
G36*
X1122244Y907644D02*
X1101188D01*
Y885088D01*
X1122244D01*
Y907644D01*
D02*
G37*
G36*
X973074Y889254D02*
X954278D01*
Y870458D01*
X973074D01*
Y889254D01*
D02*
G37*
G36*
X1078468Y877390D02*
X1065612D01*
Y864034D01*
X1078468D01*
Y867211D01*
X1098603D01*
X1098792Y867021D01*
X1100613Y866267D01*
X1102583D01*
X1104404Y867021D01*
X1105797Y868414D01*
X1106551Y870235D01*
Y872205D01*
X1105797Y874026D01*
X1104404Y875419D01*
X1102583Y876173D01*
X1100613D01*
X1098792Y875419D01*
X1098095Y874721D01*
X1078468D01*
Y877390D01*
D02*
G37*
G36*
X1050767Y933831D02*
X1048797D01*
X1046976Y933077D01*
X1045583Y931684D01*
X1044829Y929863D01*
Y927893D01*
X1045583Y926072D01*
X1046976Y924679D01*
X1048797Y923925D01*
X1050340D01*
X1053118Y921147D01*
Y897202D01*
X1049798D01*
Y883846D01*
X1053118D01*
Y877390D01*
X1050212D01*
Y864034D01*
X1063068D01*
Y877390D01*
X1059334D01*
Y883846D01*
X1062654D01*
Y897202D01*
X1059334D01*
Y922434D01*
X1059097Y923623D01*
X1058423Y924632D01*
X1054735Y928320D01*
Y929863D01*
X1053981Y931684D01*
X1052588Y933077D01*
X1050767Y933831D01*
D02*
G37*
G36*
X1080483Y855472D02*
X1078009D01*
X1075619Y854831D01*
X1073475Y853594D01*
X1071726Y851844D01*
X1070489Y849702D01*
X1069848Y847311D01*
Y844837D01*
X1070489Y842447D01*
X1071726Y840303D01*
X1073475Y838554D01*
X1075619Y837317D01*
X1078009Y836676D01*
X1080483D01*
X1082874Y837317D01*
X1085016Y838554D01*
X1086766Y840303D01*
X1088003Y842447D01*
X1088644Y844837D01*
Y847311D01*
X1088003Y849702D01*
X1086766Y851844D01*
X1085016Y853594D01*
X1082874Y854831D01*
X1080483Y855472D01*
D02*
G37*
G36*
X1183050Y922094D02*
X1170194D01*
Y908738D01*
X1172914D01*
Y904880D01*
X1172489Y904704D01*
X1170738Y903360D01*
X1169394Y901609D01*
X1168550Y899570D01*
X1168262Y897382D01*
Y895350D01*
X1168550Y893162D01*
X1169394Y891123D01*
X1170738Y889372D01*
X1172489Y888028D01*
X1172961Y887833D01*
Y852236D01*
X1173247Y850799D01*
X1174061Y849581D01*
X1191569Y832073D01*
Y780442D01*
X1190401Y779274D01*
X1189228Y779760D01*
Y780476D01*
X1188605Y782802D01*
X1187401Y784886D01*
X1185698Y786589D01*
X1183614Y787793D01*
X1181288Y788416D01*
X1178880D01*
X1176554Y787793D01*
X1174470Y786589D01*
X1172767Y784886D01*
X1171563Y782802D01*
X1171518Y782634D01*
X1148097D01*
X1135053Y795677D01*
X1134045Y796351D01*
X1132856Y796588D01*
X1077501D01*
X1073785Y800304D01*
Y801847D01*
X1073271Y803088D01*
X1074000Y804358D01*
X1144507D01*
X1151790Y797075D01*
X1152799Y796401D01*
X1153988Y796164D01*
X1171450D01*
X1171563Y795743D01*
X1172767Y793658D01*
X1174470Y791955D01*
X1176554Y790751D01*
X1178880Y790128D01*
X1181288D01*
X1183614Y790751D01*
X1185698Y791955D01*
X1187401Y793658D01*
X1188605Y795743D01*
X1189228Y798068D01*
Y800476D01*
X1188605Y802802D01*
X1187401Y804887D01*
X1185698Y806589D01*
X1183614Y807793D01*
X1181288Y808416D01*
X1178880D01*
X1176554Y807793D01*
X1174470Y806589D01*
X1172767Y804887D01*
X1171563Y802802D01*
X1171450Y802380D01*
X1155275D01*
X1147991Y809663D01*
X1146983Y810337D01*
X1145794Y810574D01*
X1108169D01*
X1108002Y811844D01*
X1108273Y811917D01*
X1110416Y813154D01*
X1112166Y814903D01*
X1113403Y817047D01*
X1114044Y819437D01*
Y821911D01*
X1113403Y824302D01*
X1112166Y826444D01*
X1110416Y828194D01*
X1108273Y829432D01*
X1105883Y830072D01*
X1103409D01*
X1101019Y829432D01*
X1098876Y828194D01*
X1097126Y826444D01*
X1095889Y824302D01*
X1095248Y821911D01*
Y819437D01*
X1095889Y817047D01*
X1097126Y814903D01*
X1098876Y813154D01*
X1101019Y811917D01*
X1101290Y811844D01*
X1101123Y810574D01*
X1082769D01*
X1082602Y811844D01*
X1082874Y811917D01*
X1085016Y813154D01*
X1086766Y814903D01*
X1088003Y817047D01*
X1088644Y819437D01*
Y821911D01*
X1088003Y824302D01*
X1086766Y826444D01*
X1085016Y828194D01*
X1082874Y829432D01*
X1080483Y830072D01*
X1078009D01*
X1075619Y829432D01*
X1073475Y828194D01*
X1071726Y826444D01*
X1070489Y824302D01*
X1069848Y821911D01*
Y819437D01*
X1070489Y817047D01*
X1071726Y814903D01*
X1073475Y813154D01*
X1075619Y811917D01*
X1075890Y811844D01*
X1075723Y810574D01*
X1057369D01*
X1057202Y811844D01*
X1057474Y811917D01*
X1059616Y813154D01*
X1061366Y814903D01*
X1062604Y817047D01*
X1063244Y819437D01*
Y821911D01*
X1062604Y824302D01*
X1061366Y826444D01*
X1059616Y828194D01*
X1057474Y829432D01*
X1055083Y830072D01*
X1052609D01*
X1050219Y829432D01*
X1048075Y828194D01*
X1046326Y826444D01*
X1045089Y824302D01*
X1044448Y821911D01*
Y819437D01*
X1045089Y817047D01*
X1046326Y814903D01*
X1048075Y813154D01*
X1050219Y811917D01*
X1050490Y811844D01*
X1050323Y810574D01*
X1042941D01*
X1036935Y816581D01*
X1037204Y817047D01*
X1037844Y819437D01*
Y821911D01*
X1037204Y824302D01*
X1035966Y826444D01*
X1034217Y828194D01*
X1032074Y829432D01*
X1029683Y830072D01*
X1028760D01*
X1028214Y830890D01*
X1019822Y839281D01*
X1019900Y839612D01*
X1020031Y839700D01*
X1021283Y839946D01*
X1022675Y838554D01*
X1024818Y837317D01*
X1027209Y836676D01*
X1029683D01*
X1032074Y837317D01*
X1034217Y838554D01*
X1035966Y840303D01*
X1036121Y840571D01*
X1037391Y840231D01*
Y835099D01*
X1036947Y834656D01*
X1036193Y832835D01*
Y830865D01*
X1036947Y829044D01*
X1038340Y827651D01*
X1040161Y826897D01*
X1042131D01*
X1043952Y827651D01*
X1045345Y829044D01*
X1046099Y830865D01*
Y832835D01*
X1045345Y834656D01*
X1044901Y835099D01*
Y840231D01*
X1046171Y840571D01*
X1046326Y840303D01*
X1048075Y838554D01*
X1050219Y837317D01*
X1052609Y836676D01*
X1055083D01*
X1057474Y837317D01*
X1059616Y838554D01*
X1061366Y840303D01*
X1062604Y842447D01*
X1063244Y844837D01*
Y847311D01*
X1062604Y849702D01*
X1061366Y851844D01*
X1059616Y853594D01*
X1057474Y854831D01*
X1055083Y855472D01*
X1052609D01*
X1050219Y854831D01*
X1048075Y853594D01*
X1046326Y851844D01*
X1046171Y851577D01*
X1044901Y851917D01*
Y853515D01*
X1044615Y854952D01*
X1043801Y856170D01*
X1041527Y858444D01*
Y859759D01*
X1040773Y861580D01*
X1039380Y862973D01*
X1037559Y863727D01*
X1035589D01*
X1033768Y862973D01*
X1032375Y861580D01*
X1032339Y861494D01*
X1032255Y861391D01*
X1031071Y861750D01*
X1031132Y862055D01*
X1031218Y862488D01*
Y875623D01*
X1032137Y876542D01*
X1032891Y878363D01*
Y880333D01*
X1032137Y882154D01*
X1031715Y882576D01*
X1032241Y883846D01*
X1042146D01*
Y897202D01*
X1033685D01*
X1030218Y900669D01*
X1029209Y901343D01*
X1028020Y901580D01*
X1014406D01*
X1013216Y901343D01*
X1012208Y900669D01*
X998689Y887151D01*
X998016Y886143D01*
X997952Y885819D01*
X996613Y885598D01*
X996596Y885627D01*
X994846Y887376D01*
X992703Y888614D01*
X990313Y889254D01*
X987839D01*
X985449Y888614D01*
X983306Y887376D01*
X981556Y885627D01*
X980319Y883484D01*
X979678Y881093D01*
Y878619D01*
X980319Y876228D01*
X981556Y874085D01*
X983306Y872336D01*
X985449Y871098D01*
X987839Y870458D01*
X990313D01*
X992703Y871098D01*
X994846Y872336D01*
X996509Y873998D01*
X997154Y873936D01*
X997779Y873768D01*
Y860289D01*
X990181Y852690D01*
X989507Y851682D01*
X989270Y850493D01*
Y804418D01*
X989507Y803229D01*
X990181Y802221D01*
X1000993Y791408D01*
X1002001Y790735D01*
X1003190Y790498D01*
X1026541D01*
X1036592Y780447D01*
Y771472D01*
X1025574D01*
Y767902D01*
X1000777D01*
X995635Y773044D01*
X995807Y773461D01*
Y775431D01*
X995053Y777252D01*
X993660Y778645D01*
X991839Y779399D01*
X989869D01*
X988048Y778645D01*
X986655Y777252D01*
X985901Y775431D01*
Y773461D01*
X986655Y771640D01*
X988048Y770247D01*
X989869Y769493D01*
X990396D01*
X997292Y762597D01*
X998301Y761923D01*
X999490Y761686D01*
X1025574D01*
Y758116D01*
X1036592D01*
Y732263D01*
X1009993Y705663D01*
X1009319Y704655D01*
X1009082Y703466D01*
Y681823D01*
X1007991Y680732D01*
X1007237Y678911D01*
Y676941D01*
X1007588Y676093D01*
X1006740Y674823D01*
X1005533D01*
X1005090Y675267D01*
X1003269Y676021D01*
X1001299D01*
X999478Y675267D01*
X998085Y673874D01*
X997331Y672053D01*
Y670083D01*
X998085Y668262D01*
X999478Y666869D01*
X1001299Y666115D01*
X1003269D01*
X1005090Y666869D01*
X1005533Y667313D01*
X1044689D01*
X1044717Y667285D01*
X1045311Y666139D01*
X1032860Y653688D01*
X1004263D01*
X1002826Y653402D01*
X1001608Y652588D01*
X968387Y619367D01*
X967573Y618149D01*
X967287Y616712D01*
Y599996D01*
X965272Y598832D01*
X963522Y597082D01*
X962284Y594939D01*
X961644Y592549D01*
Y590075D01*
X962284Y587685D01*
X963522Y585541D01*
X965272Y583792D01*
X967414Y582555D01*
X969805Y581914D01*
X972279D01*
X974669Y582555D01*
X976813Y583792D01*
X978562Y585541D01*
X979799Y587685D01*
X980440Y590075D01*
Y592549D01*
X979799Y594939D01*
X978562Y597082D01*
X976813Y598832D01*
X974797Y599996D01*
Y615157D01*
X1005818Y646178D01*
X1034416D01*
X1035853Y646464D01*
X1037071Y647278D01*
X1140310Y750517D01*
X1170940D01*
Y749700D01*
X1175512Y745128D01*
X1184656D01*
X1189228Y749700D01*
Y758844D01*
X1184835Y763237D01*
X1185013Y764538D01*
X1186098Y764754D01*
X1187316Y765568D01*
X1190396Y768647D01*
X1191569Y768161D01*
Y746906D01*
X1133327Y688664D01*
X1132513Y687446D01*
X1132227Y686009D01*
Y656156D01*
X1129554D01*
Y642800D01*
X1132227D01*
Y630502D01*
X1129968D01*
Y622457D01*
X1128597Y621086D01*
X1127424Y621572D01*
Y630502D01*
X1124010D01*
Y641517D01*
X1125101Y642608D01*
X1125855Y644429D01*
Y646399D01*
X1125101Y648220D01*
X1123708Y649613D01*
X1121887Y650367D01*
X1119917D01*
X1118096Y649613D01*
X1116703Y648220D01*
X1115949Y646399D01*
Y644429D01*
X1116703Y642608D01*
X1117794Y641517D01*
Y630502D01*
X1114568D01*
Y617146D01*
X1122998D01*
X1123484Y615973D01*
X1119678Y612167D01*
X1073757D01*
X1072319Y611881D01*
X1071101Y611067D01*
X1058684Y598649D01*
X1057870Y597431D01*
X1057584Y595994D01*
Y593934D01*
X1056314Y593767D01*
X1056000Y594939D01*
X1054762Y597082D01*
X1053012Y598832D01*
X1050870Y600070D01*
X1050350Y600209D01*
Y613647D01*
X1052487Y615784D01*
X1053161Y616793D01*
X1053398Y617982D01*
Y634672D01*
X1056718D01*
Y648028D01*
X1043862D01*
Y634672D01*
X1047182D01*
Y619269D01*
X1045044Y617132D01*
X1044371Y616123D01*
X1044134Y614934D01*
Y600209D01*
X1043615Y600070D01*
X1041471Y598832D01*
X1039722Y597082D01*
X1039258Y596279D01*
X1038835Y596196D01*
X1037817Y596324D01*
X1037197Y597252D01*
X1029179Y605270D01*
X1027961Y606084D01*
X1026524Y606370D01*
X1007745D01*
X1006308Y606084D01*
X1005090Y605270D01*
X999927Y600108D01*
X997679Y600710D01*
X995205D01*
X992814Y600070D01*
X990671Y598832D01*
X988922Y597082D01*
X987684Y594939D01*
X987044Y592549D01*
Y590075D01*
X987684Y587685D01*
X988922Y585541D01*
X990671Y583792D01*
X992814Y582555D01*
X995205Y581914D01*
X997679D01*
X1000070Y582555D01*
X1002213Y583792D01*
X1003962Y585541D01*
X1005200Y587685D01*
X1005840Y590075D01*
Y592549D01*
X1005238Y594797D01*
X1009300Y598860D01*
X1014303D01*
X1014829Y597590D01*
X1014322Y597082D01*
X1013084Y594939D01*
X1012444Y592549D01*
Y590075D01*
X1013084Y587685D01*
X1014322Y585541D01*
X1016071Y583792D01*
X1018214Y582555D01*
X1020605Y581914D01*
X1023079D01*
X1025470Y582555D01*
X1027613Y583792D01*
X1029362Y585541D01*
X1029827Y586345D01*
X1030249Y586428D01*
X1031267Y586300D01*
X1031887Y585372D01*
X1039905Y577354D01*
X1041123Y576540D01*
X1042560Y576254D01*
X1044620D01*
X1044788Y574984D01*
X1043615Y574669D01*
X1041471Y573432D01*
X1039722Y571683D01*
X1038484Y569539D01*
X1037844Y567149D01*
Y564675D01*
X1038484Y562285D01*
X1039722Y560141D01*
X1041471Y558392D01*
X1043615Y557155D01*
X1046005Y556514D01*
X1048479D01*
X1050870Y557155D01*
X1053012Y558392D01*
X1054762Y560141D01*
X1056000Y562285D01*
X1056640Y564675D01*
Y567149D01*
X1056000Y569539D01*
X1054762Y571683D01*
X1053012Y573432D01*
X1050870Y574669D01*
X1049697Y574984D01*
X1049864Y576254D01*
X1051924D01*
X1053361Y576540D01*
X1054579Y577354D01*
X1063330Y586105D01*
X1064909Y585910D01*
X1065122Y585541D01*
X1066871Y583792D01*
X1069015Y582555D01*
X1071405Y581914D01*
X1073879D01*
X1076270Y582555D01*
X1078412Y583792D01*
X1080162Y585541D01*
X1081400Y587685D01*
X1082040Y590075D01*
Y592549D01*
X1081400Y594939D01*
X1080162Y597082D01*
X1078412Y598832D01*
X1076270Y600070D01*
X1073879Y600710D01*
X1073162D01*
X1072636Y601980D01*
X1075312Y604656D01*
X1121233D01*
X1122671Y604942D01*
X1123889Y605756D01*
X1135279Y617146D01*
X1142824D01*
Y630502D01*
X1139737D01*
Y642800D01*
X1142410D01*
Y656156D01*
X1139737D01*
Y684453D01*
X1197979Y742695D01*
X1198793Y743914D01*
X1199079Y745351D01*
Y778886D01*
Y833628D01*
X1198793Y835065D01*
X1197979Y836283D01*
X1180471Y853791D01*
Y887833D01*
X1180943Y888028D01*
X1182694Y889372D01*
X1184038Y891123D01*
X1184882Y893162D01*
X1185170Y895350D01*
Y897382D01*
X1184882Y899570D01*
X1184038Y901609D01*
X1182694Y903360D01*
X1180943Y904704D01*
X1180424Y904919D01*
Y908738D01*
X1183050D01*
Y922094D01*
D02*
G37*
G36*
X953483Y855472D02*
X951009D01*
X948618Y854831D01*
X946476Y853594D01*
X944726Y851844D01*
X943488Y849702D01*
X942848Y847311D01*
Y844837D01*
X943488Y842447D01*
X944726Y840303D01*
X946476Y838554D01*
X948618Y837317D01*
X951009Y836676D01*
X953483D01*
X955873Y837317D01*
X958017Y838554D01*
X959766Y840303D01*
X961003Y842447D01*
X961644Y844837D01*
Y847311D01*
X961003Y849702D01*
X959766Y851844D01*
X958017Y853594D01*
X955873Y854831D01*
X953483Y855472D01*
D02*
G37*
G36*
X1171925Y666115D02*
X1169955D01*
X1168134Y665361D01*
X1166741Y663968D01*
X1165987Y662147D01*
Y660177D01*
X1166741Y658356D01*
X1167346Y657751D01*
Y656121D01*
X1163811Y652586D01*
X1157810D01*
Y656156D01*
X1144954D01*
Y642800D01*
X1157810D01*
Y646370D01*
X1165098D01*
X1166287Y646607D01*
X1167296Y647281D01*
X1172652Y652636D01*
X1173325Y653645D01*
X1173562Y654834D01*
Y656887D01*
X1173746Y656963D01*
X1175139Y658356D01*
X1175893Y660177D01*
Y662147D01*
X1175139Y663968D01*
X1173746Y665361D01*
X1171925Y666115D01*
D02*
G37*
G36*
X1124679Y600710D02*
X1122205D01*
X1119815Y600070D01*
X1117672Y598832D01*
X1115922Y597082D01*
X1114685Y594939D01*
X1114044Y592549D01*
Y590075D01*
X1114685Y587685D01*
X1115922Y585541D01*
X1117672Y583792D01*
X1119815Y582555D01*
X1122205Y581914D01*
X1124679D01*
X1127069Y582555D01*
X1129212Y583792D01*
X1130962Y585541D01*
X1132199Y587685D01*
X1132840Y590075D01*
Y592549D01*
X1132199Y594939D01*
X1130962Y597082D01*
X1129212Y598832D01*
X1127069Y600070D01*
X1124679Y600710D01*
D02*
G37*
G36*
X1099279D02*
X1096805D01*
X1094415Y600070D01*
X1092271Y598832D01*
X1090522Y597082D01*
X1089285Y594939D01*
X1088644Y592549D01*
Y590075D01*
X1089285Y587685D01*
X1090522Y585541D01*
X1092271Y583792D01*
X1094415Y582555D01*
X1096805Y581914D01*
X1099279D01*
X1101669Y582555D01*
X1103812Y583792D01*
X1105562Y585541D01*
X1106799Y587685D01*
X1107440Y590075D01*
Y592549D01*
X1106799Y594939D01*
X1105562Y597082D01*
X1103812Y598832D01*
X1101669Y600070D01*
X1099279Y600710D01*
D02*
G37*
G36*
X946879D02*
X944405D01*
X942014Y600070D01*
X939872Y598832D01*
X938122Y597082D01*
X936885Y594939D01*
X936244Y592549D01*
Y590075D01*
X936885Y587685D01*
X938122Y585541D01*
X939872Y583792D01*
X942014Y582555D01*
X944405Y581914D01*
X946879D01*
X949269Y582555D01*
X951413Y583792D01*
X953162Y585541D01*
X954399Y587685D01*
X955040Y590075D01*
Y592549D01*
X954399Y594939D01*
X953162Y597082D01*
X951413Y598832D01*
X949269Y600070D01*
X946879Y600710D01*
D02*
G37*
G36*
X1124679Y575310D02*
X1122205D01*
X1119815Y574669D01*
X1117672Y573432D01*
X1115922Y571683D01*
X1114685Y569539D01*
X1114044Y567149D01*
Y564675D01*
X1114685Y562285D01*
X1115922Y560141D01*
X1117672Y558392D01*
X1119815Y557155D01*
X1122205Y556514D01*
X1124679D01*
X1127069Y557155D01*
X1129212Y558392D01*
X1130962Y560141D01*
X1132199Y562285D01*
X1132840Y564675D01*
Y567149D01*
X1132199Y569539D01*
X1130962Y571683D01*
X1129212Y573432D01*
X1127069Y574669D01*
X1124679Y575310D01*
D02*
G37*
G36*
X1099279D02*
X1096805D01*
X1094415Y574669D01*
X1092271Y573432D01*
X1090522Y571683D01*
X1089285Y569539D01*
X1088644Y567149D01*
Y564675D01*
X1089285Y562285D01*
X1090522Y560141D01*
X1092271Y558392D01*
X1094415Y557155D01*
X1096805Y556514D01*
X1099279D01*
X1101669Y557155D01*
X1103812Y558392D01*
X1105562Y560141D01*
X1106799Y562285D01*
X1107440Y564675D01*
Y567149D01*
X1106799Y569539D01*
X1105562Y571683D01*
X1103812Y573432D01*
X1101669Y574669D01*
X1099279Y575310D01*
D02*
G37*
G36*
X1073879D02*
X1071405D01*
X1069015Y574669D01*
X1066871Y573432D01*
X1065122Y571683D01*
X1063885Y569539D01*
X1063244Y567149D01*
Y564675D01*
X1063885Y562285D01*
X1065122Y560141D01*
X1066871Y558392D01*
X1069015Y557155D01*
X1071405Y556514D01*
X1073879D01*
X1076270Y557155D01*
X1078412Y558392D01*
X1080162Y560141D01*
X1081400Y562285D01*
X1082040Y564675D01*
Y567149D01*
X1081400Y569539D01*
X1080162Y571683D01*
X1078412Y573432D01*
X1076270Y574669D01*
X1073879Y575310D01*
D02*
G37*
G36*
X1023079D02*
X1020605D01*
X1018214Y574669D01*
X1016071Y573432D01*
X1014322Y571683D01*
X1013084Y569539D01*
X1012444Y567149D01*
Y564675D01*
X1013084Y562285D01*
X1014322Y560141D01*
X1016071Y558392D01*
X1018214Y557155D01*
X1020605Y556514D01*
X1023079D01*
X1025470Y557155D01*
X1027613Y558392D01*
X1029362Y560141D01*
X1030600Y562285D01*
X1031240Y564675D01*
Y567149D01*
X1030600Y569539D01*
X1029362Y571683D01*
X1027613Y573432D01*
X1025470Y574669D01*
X1023079Y575310D01*
D02*
G37*
G36*
X997679D02*
X995205D01*
X992814Y574669D01*
X990671Y573432D01*
X988922Y571683D01*
X987684Y569539D01*
X987044Y567149D01*
Y564675D01*
X987684Y562285D01*
X988922Y560141D01*
X990671Y558392D01*
X992814Y557155D01*
X995205Y556514D01*
X997679D01*
X1000070Y557155D01*
X1002213Y558392D01*
X1003962Y560141D01*
X1005200Y562285D01*
X1005840Y564675D01*
Y567149D01*
X1005200Y569539D01*
X1003962Y571683D01*
X1002213Y573432D01*
X1000070Y574669D01*
X997679Y575310D01*
D02*
G37*
G36*
X972279D02*
X969805D01*
X967414Y574669D01*
X965272Y573432D01*
X963522Y571683D01*
X962284Y569539D01*
X961644Y567149D01*
Y564675D01*
X962284Y562285D01*
X963522Y560141D01*
X965272Y558392D01*
X967414Y557155D01*
X969805Y556514D01*
X972279D01*
X974669Y557155D01*
X976813Y558392D01*
X978562Y560141D01*
X979799Y562285D01*
X980440Y564675D01*
Y567149D01*
X979799Y569539D01*
X978562Y571683D01*
X976813Y573432D01*
X974669Y574669D01*
X972279Y575310D01*
D02*
G37*
G36*
X955040D02*
X936244D01*
Y556514D01*
X955040D01*
Y575310D01*
D02*
G37*
%LPD*%
G36*
X1013146Y842551D02*
Y838454D01*
X1013383Y837265D01*
X1014056Y836256D01*
X1022397Y827916D01*
X1020926Y826444D01*
X1019688Y824302D01*
X1019048Y821911D01*
Y819437D01*
X1019688Y817047D01*
X1020926Y814903D01*
X1022675Y813154D01*
X1024818Y811917D01*
X1027209Y811276D01*
X1029683D01*
X1032074Y811917D01*
X1032540Y812186D01*
X1039456Y805268D01*
X1040465Y804595D01*
X1041654Y804358D01*
X1063664D01*
X1064393Y803088D01*
X1063879Y801847D01*
Y799877D01*
X1064633Y798056D01*
X1066026Y796663D01*
X1067847Y795909D01*
X1069390D01*
X1074016Y791283D01*
X1074728Y790807D01*
X1074398Y789537D01*
X1068917D01*
X1067480Y789251D01*
X1066262Y788437D01*
X1062812Y784987D01*
X1061497D01*
X1059676Y784233D01*
X1058283Y782840D01*
X1057529Y781019D01*
Y780482D01*
X1048519Y771472D01*
X1042808D01*
Y781734D01*
X1042571Y782923D01*
X1041898Y783932D01*
X1030026Y795803D01*
X1029017Y796477D01*
X1027828Y796713D01*
X1004477D01*
X995486Y805705D01*
Y838547D01*
X996756Y839073D01*
X997275Y838554D01*
X999418Y837317D01*
X1001809Y836676D01*
X1004283D01*
X1006674Y837317D01*
X1008817Y838554D01*
X1010566Y840303D01*
X1011804Y842447D01*
X1011876Y842718D01*
X1013146Y842551D01*
D02*
G37*
G36*
X1080188Y779354D02*
X1088233D01*
X1102020Y765568D01*
X1103238Y764754D01*
X1104675Y764468D01*
X1174985D01*
X1175294Y763198D01*
X1170940Y758844D01*
Y758027D01*
X1138755D01*
X1137318Y757741D01*
X1136099Y756927D01*
X1123726Y744554D01*
X1122487Y745111D01*
X1121799Y746772D01*
X1120406Y748165D01*
X1118585Y748919D01*
X1116615D01*
X1114794Y748165D01*
X1113401Y746772D01*
X1112647Y744951D01*
Y744324D01*
X1043147Y674823D01*
X1017641D01*
X1016792Y676093D01*
X1017143Y676941D01*
Y678911D01*
X1016389Y680732D01*
X1015298Y681823D01*
Y702179D01*
X1041898Y728778D01*
X1042571Y729787D01*
X1042808Y730976D01*
Y737079D01*
X1044078Y737204D01*
X1044282Y736178D01*
X1045096Y734959D01*
X1048479Y731576D01*
X1049697Y730762D01*
X1051134Y730477D01*
X1054489D01*
X1054933Y730033D01*
X1056753Y729279D01*
X1058724D01*
X1060544Y730033D01*
X1061937Y731426D01*
X1062691Y733247D01*
Y735217D01*
X1061937Y737037D01*
X1060544Y738431D01*
X1058724Y739185D01*
X1056753D01*
X1055110Y738504D01*
X1054318Y739211D01*
X1054178Y739388D01*
Y752676D01*
X1051585D01*
Y758116D01*
X1053830D01*
Y766161D01*
X1062750Y775081D01*
X1063467D01*
X1065288Y775835D01*
X1066681Y777228D01*
X1067393Y778947D01*
X1070473Y782027D01*
X1080188D01*
Y779354D01*
D02*
G37*
D10*
X1120902Y623918D02*
X1120996Y623824D01*
X1120902Y623918D02*
Y645414D01*
X1016254Y838454D02*
Y850632D01*
X1026016Y823104D02*
Y828692D01*
Y823104D02*
X1028446Y820674D01*
X1016254Y838454D02*
X1026016Y828692D01*
X1028446Y820674D02*
X1041654Y807466D01*
X1016254Y850632D02*
X1028110Y862488D01*
Y879176D01*
X1027938Y879348D02*
X1028110Y879176D01*
X1035303Y890109D02*
Y891189D01*
X992378Y850493D02*
X1000887Y859002D01*
Y884954D01*
X1014406Y898472D01*
X1028020D02*
X1035303Y891189D01*
X1014406Y898472D02*
X1028020D01*
X1035303Y890109D02*
X1035718Y890524D01*
X1007110Y875538D02*
X1012698Y869950D01*
X1020412D01*
X1143254Y932618D02*
X1155943D01*
X1012190Y677926D02*
Y703466D01*
X1179830Y779526D02*
X1180084Y779272D01*
X1132856Y793480D02*
X1146810Y779526D01*
X1076214Y793480D02*
X1132856D01*
X1146810Y779526D02*
X1179830D01*
X1165098Y649478D02*
X1170454Y654834D01*
Y660676D01*
X1041654Y807466D02*
X1145794D01*
X1153988Y799272D02*
X1180084D01*
X1145794Y807466D02*
X1153988Y799272D01*
X1068832Y800862D02*
X1076214Y793480D01*
X1012190Y703466D02*
X1039700Y730976D01*
X1047242Y591312D02*
Y614934D01*
X1050290Y617982D01*
Y641350D01*
X1039700Y730976D02*
Y781734D01*
X1003190Y793606D02*
X1027828D01*
X1039700Y781734D01*
X992378Y804418D02*
Y850493D01*
Y804418D02*
X1003190Y793606D01*
X999490Y764794D02*
X1032002D01*
X1151382Y649478D02*
X1165098D01*
X990854Y773430D02*
Y774446D01*
Y773430D02*
X999490Y764794D01*
X1192022Y915416D02*
X1192530Y914908D01*
X1204722D01*
X1155943Y932618D02*
X1157627Y934302D01*
X1158658D01*
X1142148Y932618D02*
X1143254D01*
Y910844D02*
Y931512D01*
Y910844D02*
X1156716Y897382D01*
Y896366D02*
Y897382D01*
X1121918Y931766D02*
X1143000D01*
X1143254Y931512D01*
X1049782Y928878D02*
X1056226Y922434D01*
Y871126D02*
Y890524D01*
Y922434D01*
X1020318Y870872D02*
Y890524D01*
X1020158Y870712D02*
X1020318Y870872D01*
X1056226Y871126D02*
X1056640Y870712D01*
D12*
X1062990Y746158D02*
X1063150Y745998D01*
X1062990Y746158D02*
Y758952D01*
D21*
X1086866Y770382D02*
D03*
X1121918Y947166D02*
D03*
X1142148Y948018D02*
D03*
Y932618D02*
D03*
X1121918Y931766D02*
D03*
X1086866Y785782D02*
D03*
D26*
X1120996Y623824D02*
D03*
X1136396D02*
D03*
X1072040Y870712D02*
D03*
X1056640D02*
D03*
X1137826Y967232D02*
D03*
X1122426D02*
D03*
X1071626Y890524D02*
D03*
X1056226D02*
D03*
X1065690Y641350D02*
D03*
X1063150Y745998D02*
D03*
X1035812Y869950D02*
D03*
X1020412D02*
D03*
X1151382Y649478D02*
D03*
X1135982D02*
D03*
X1176622Y915416D02*
D03*
X1192022D02*
D03*
X1032002Y764794D02*
D03*
X1047402D02*
D03*
X1020318Y890524D02*
D03*
X1035718D02*
D03*
X1050290Y641350D02*
D03*
X1047750Y745998D02*
D03*
D54*
X1063150D02*
X1065231Y743917D01*
Y717087D02*
Y743917D01*
X1059180Y711036D02*
X1065231Y717087D01*
X1059180Y710692D02*
Y711036D01*
X1043851Y650568D02*
X1056729D01*
X1059988Y647302D02*
Y647309D01*
Y647302D02*
X1065690Y641600D01*
X1008888Y638048D02*
X1031331D01*
X1065690Y641350D02*
Y641600D01*
X1031331Y638048D02*
X1043851Y650568D01*
X1056729D02*
X1059988Y647309D01*
D55*
X1138755Y754272D02*
X1180084D01*
X1004263Y649933D02*
X1034416D01*
X1138755Y754272D01*
X1036574Y858087D02*
Y858774D01*
X1041146Y831850D02*
Y853515D01*
X1036574Y858087D02*
X1041146Y853515D01*
X1134571Y625649D02*
X1135982Y627060D01*
X1047830Y745998D02*
Y764366D01*
X1135454Y949124D02*
X1141042D01*
X1133094Y951484D02*
Y957072D01*
X1141042Y949124D02*
X1143254Y946912D01*
X1133094Y951484D02*
X1135454Y949124D01*
X1127250Y957072D02*
X1133094D01*
X1122426Y967232D02*
X1125018Y964640D01*
Y959304D02*
Y964640D01*
Y959304D02*
X1127250Y957072D01*
X1002284Y671068D02*
X1044702D01*
X1117600Y743966D01*
X1072040Y870712D02*
X1072294Y870966D01*
X1101344D01*
X1101598Y871220D01*
X1068917Y785782D02*
X1086866D01*
X1087116D01*
X1104675Y768223D01*
X1047750Y745748D02*
Y745998D01*
X1104675Y768223D02*
X1184661D01*
X1135982Y627060D02*
Y649478D01*
X1170454Y660676D02*
X1170940Y661162D01*
X1135982Y649478D02*
Y686009D01*
X1195324Y745351D01*
Y778886D01*
X1176716Y852236D02*
X1195324Y833628D01*
X1176716Y852236D02*
Y896366D01*
X1195324Y778886D02*
Y833628D01*
X971042Y591312D02*
Y616712D01*
X1004263Y649933D01*
X1042560Y580009D02*
X1051924D01*
X1007745Y602615D02*
X1026524D01*
X996442Y591312D02*
X1007745Y602615D01*
X1061339Y595994D02*
X1073757Y608411D01*
X1026524Y602615D02*
X1034542Y594597D01*
X1051924Y580009D02*
X1061339Y589424D01*
Y595994D01*
X1034542Y588027D02*
X1042560Y580009D01*
X1073757Y608411D02*
X1121233D01*
X1034542Y588027D02*
Y594597D01*
X1051134Y734232D02*
X1057738D01*
X1047751Y737615D02*
Y745997D01*
X1047750Y745998D02*
X1047751Y745997D01*
Y737615D02*
X1051134Y734232D01*
X1121233Y608411D02*
X1136396Y623574D01*
Y623824D01*
X1047402Y764794D02*
X1047830Y764366D01*
X1047402Y764794D02*
Y765044D01*
X1062392Y780034D01*
X1062482D01*
X1184661Y768223D02*
X1195324Y778886D01*
X1176622Y915416D02*
X1176669Y915369D01*
Y896413D02*
Y915369D01*
Y896413D02*
X1176716Y896366D01*
X1063169Y780034D02*
X1068917Y785782D01*
X1062482Y780034D02*
X1063169D01*
D56*
X993902Y964438D02*
D03*
X1080302D02*
D03*
D57*
Y922638D02*
D03*
X993902D02*
D03*
D58*
X952246Y820674D02*
D03*
X945642Y565912D02*
D03*
X963676Y879856D02*
D03*
D59*
X977646Y820674D02*
D03*
Y846074D02*
D03*
X1003046Y820674D02*
D03*
X1130046Y846074D02*
D03*
Y820674D02*
D03*
X1104646Y846074D02*
D03*
X1148842Y565912D02*
D03*
Y591312D02*
D03*
X945642D02*
D03*
X971042Y565912D02*
D03*
Y591312D02*
D03*
X996442Y565912D02*
D03*
Y591312D02*
D03*
X1021842Y565912D02*
D03*
Y591312D02*
D03*
X1047242Y565912D02*
D03*
Y591312D02*
D03*
X1072642Y565912D02*
D03*
Y591312D02*
D03*
X1098042Y565912D02*
D03*
Y591312D02*
D03*
X1123442Y565912D02*
D03*
Y591312D02*
D03*
X989076Y879856D02*
D03*
X1079246Y820674D02*
D03*
Y846074D02*
D03*
X1104646Y820674D02*
D03*
X1053846Y846074D02*
D03*
Y820674D02*
D03*
X1028446Y846074D02*
D03*
Y820674D02*
D03*
X1003046Y846074D02*
D03*
X952246D02*
D03*
D60*
X1207084Y854272D02*
D03*
Y724272D02*
D03*
D61*
X1180084Y824272D02*
D03*
Y779272D02*
D03*
Y799272D02*
D03*
D62*
Y754272D02*
D03*
D63*
X1111716Y896366D02*
D03*
X1201716D02*
D03*
D64*
X1136716D02*
D03*
X1176716D02*
D03*
X1156716D02*
D03*
D65*
X1017270Y745236D02*
D03*
X1059180Y710692D02*
D03*
X1008888Y638048D02*
D03*
X1062990Y758952D02*
D03*
X1120902Y645414D02*
D03*
X1204722Y914908D02*
D03*
X1036574Y858774D02*
D03*
X1041146Y831850D02*
D03*
X1027938Y879348D02*
D03*
X1007110Y875538D02*
D03*
X1133094Y957072D02*
D03*
X1117600Y743966D02*
D03*
X1101598Y871220D02*
D03*
X1012190Y677926D02*
D03*
X1170940Y661162D02*
D03*
X1002284Y671068D02*
D03*
X1057738Y734232D02*
D03*
X990854Y774446D02*
D03*
X1158658Y934302D02*
D03*
X1062482Y780034D02*
D03*
X1049782Y928878D02*
D03*
X1068832Y800862D02*
D03*
M02*
