G04*
G04 #@! TF.GenerationSoftware,Altium Limited,Altium Designer,23.5.1 (21)*
G04*
G04 Layer_Color=65535*
%FSLAX44Y44*%
%MOMM*%
G71*
G04*
G04 #@! TF.SameCoordinates,3DE8B106-AB94-4B2A-A5C1-010116C31EDB*
G04*
G04*
G04 #@! TF.FilePolarity,Positive*
G04*
G01*
G75*
%ADD10C,0.2540*%
%ADD11C,0.2000*%
%ADD12C,0.2032*%
%ADD13C,0.1520*%
%ADD14C,0.1524*%
%ADD15C,0.1778*%
D10*
X1051666Y765543D02*
G03*
X1051666Y765543I-1080J0D01*
G01*
X1161542Y552958D02*
Y603758D01*
X932942Y553212D02*
Y604012D01*
X1161542D01*
X932942Y553212D02*
X1161542D01*
X958342D02*
Y578612D01*
X932942D02*
X958342D01*
X1309984Y716752D02*
Y863752D01*
X1192784Y741572D02*
Y838092D01*
X1157224Y855872D02*
X1305984D01*
X1157224Y723792D02*
Y855872D01*
Y723792D02*
X1305984D01*
X1167384Y838092D02*
X1192784D01*
X1167384Y741572D02*
X1192784D01*
X1167384Y766972D02*
X1192784D01*
X1167384Y741572D02*
Y838092D01*
X1305984Y723792D02*
Y855872D01*
Y723792D02*
X1309984Y716752D01*
X1220724Y723792D02*
Y855872D01*
X1235964Y835552D02*
X1296924Y820312D01*
Y810152D02*
Y820312D01*
X1235964Y799992D02*
X1296924Y810152D01*
X1235964Y779672D02*
X1296924Y764432D01*
Y754272D02*
Y764432D01*
X1235964Y744112D02*
X1296924Y754272D01*
X1281684Y807866D02*
Y823106D01*
X1276604Y806596D02*
Y825392D01*
X1281684Y752240D02*
Y767480D01*
X1276604Y750970D02*
Y769766D01*
X1305984Y855872D02*
X1309984Y863752D01*
X1001776Y867156D02*
Y892556D01*
X950976Y867156D02*
X1001776D01*
X950976Y892556D02*
X1001776D01*
X950976Y867156D02*
Y892556D01*
X939800Y858774D02*
X1142746D01*
X939800Y807974D02*
X1142746D01*
X939546D02*
Y858774D01*
X1142746Y807974D02*
Y858774D01*
X964184Y807974D02*
Y832612D01*
X939800D02*
X964184D01*
X972350Y727296D02*
Y788296D01*
X1008850D01*
Y727296D02*
Y788296D01*
X972350Y727296D02*
X1008850D01*
D11*
X1023723Y686562D02*
G03*
X1023723Y696722I0J5080D01*
G01*
X1228624Y911368D02*
Y922718D01*
Y894368D02*
Y903368D01*
X1212824Y911368D02*
Y922718D01*
X1214754Y892368D02*
X1226694D01*
X1212824Y922718D02*
X1228624D01*
X1212824Y894368D02*
Y903368D01*
Y894368D02*
X1214754Y892368D01*
X1226694D02*
X1228624Y894368D01*
X1054416Y891174D02*
X1064416D01*
X1054416Y877174D02*
X1064416D01*
Y891174D01*
X1054416Y877174D02*
Y891174D01*
X1057416Y877174D02*
Y891174D01*
X1138538Y939266D02*
X1149888D01*
X1119188D02*
X1130538D01*
X1138538Y955066D02*
X1149888D01*
X1119188Y939266D02*
Y955066D01*
X1149888Y939266D02*
Y955066D01*
X1119188D02*
X1130538D01*
X1143228Y693386D02*
X1145158Y695386D01*
X1157098D02*
X1159028Y693386D01*
Y684386D02*
Y693386D01*
X1143228Y665036D02*
X1159028D01*
X1145158Y695386D02*
X1157098D01*
X1159028Y665036D02*
Y676386D01*
X1143228Y684386D02*
Y693386D01*
Y665036D02*
Y676386D01*
X1109954Y692878D02*
X1111884Y694878D01*
X1123824D02*
X1125754Y692878D01*
Y683878D02*
Y692878D01*
X1109954Y664528D02*
X1125754D01*
X1111884Y694878D02*
X1123824D01*
X1125754Y664528D02*
Y675878D01*
X1109954Y683878D02*
Y692878D01*
Y664528D02*
Y675878D01*
X1023723Y709614D02*
X1088418D01*
X1023723Y673670D02*
X1088418D01*
X1023723D02*
Y686562D01*
X1088418Y673670D02*
Y709614D01*
X1023723Y696722D02*
Y709614D01*
D12*
X1227074Y961390D02*
Y969010D01*
Y928370D02*
Y935990D01*
X1194054Y969010D02*
X1227074D01*
X1194054Y928370D02*
X1227074D01*
X1085922Y881634D02*
Y886968D01*
X1083382Y884174D02*
X1088462D01*
X1111636Y873252D02*
Y919252D01*
X1111716D02*
X1201716D01*
X1111716Y873252D02*
X1201716D01*
Y919252D01*
X1073762Y771398D02*
Y784098D01*
X1052426Y771398D02*
Y784098D01*
X1217933Y929818D02*
X1224704D01*
X1221319Y933203D02*
Y926432D01*
X1200406Y769512D02*
X1210564D01*
X1200406D02*
Y772898D01*
X1200890Y774349D01*
X1201857Y775316D01*
X1202825Y775800D01*
X1204276Y776284D01*
X1206694D01*
X1208146Y775800D01*
X1209113Y775316D01*
X1210080Y774349D01*
X1210564Y772898D01*
Y769512D01*
X1206211Y778557D02*
Y787264D01*
X1200406Y792372D02*
X1210564D01*
X1200406D02*
Y795758D01*
X1200890Y797209D01*
X1201857Y798176D01*
X1202825Y798660D01*
X1204276Y799144D01*
X1206694D01*
X1208146Y798660D01*
X1209113Y798176D01*
X1210080Y797209D01*
X1210564Y795758D01*
Y792372D01*
X1201857Y805771D02*
X1210564D01*
X1206211Y801417D02*
Y810124D01*
X1200406Y749192D02*
X1210564Y753062D01*
X1200406Y756931D02*
X1210564Y753062D01*
X1202825Y827568D02*
X1201857Y827084D01*
X1200890Y826116D01*
X1200406Y825149D01*
Y823214D01*
X1200890Y822247D01*
X1201857Y821279D01*
X1202825Y820796D01*
X1204276Y820312D01*
X1206694D01*
X1208146Y820796D01*
X1209113Y821279D01*
X1210080Y822247D01*
X1210564Y823214D01*
Y825149D01*
X1210080Y826116D01*
X1209113Y827084D01*
X1208146Y827568D01*
X1206694D01*
Y825149D02*
Y827568D01*
X1153919Y657936D02*
X1147148D01*
X1150533Y654551D02*
Y661322D01*
X1120645Y657429D02*
X1113874D01*
X1117259Y654043D02*
Y660814D01*
D13*
X1080302Y938438D02*
Y952688D01*
X993902Y938438D02*
Y952688D01*
Y976188D02*
Y990438D01*
X1080302Y976188D02*
Y990438D01*
X993902D02*
X1080302D01*
D14*
X973560Y678107D02*
X1002560D01*
X973560Y649551D02*
X1002560D01*
Y678107D01*
X973560Y649551D02*
Y678107D01*
D15*
X1031876Y775168D02*
X1039282D01*
X1040764Y776649D01*
Y779612D01*
X1039282Y781093D01*
X1031876D01*
X1033358Y784055D02*
X1031876Y785536D01*
Y788499D01*
X1033358Y789980D01*
X1034839D01*
X1036320Y788499D01*
Y787018D01*
Y788499D01*
X1037801Y789980D01*
X1039282D01*
X1040764Y788499D01*
Y785536D01*
X1039282Y784055D01*
X1160654Y960334D02*
X1168060D01*
X1169542Y961815D01*
Y964778D01*
X1168060Y966259D01*
X1160654D01*
X1169542Y975146D02*
Y969221D01*
X1163617Y975146D01*
X1162136D01*
X1160654Y973665D01*
Y970702D01*
X1162136Y969221D01*
X1009778Y693845D02*
X1017184D01*
X1018665Y695326D01*
Y698289D01*
X1017184Y699770D01*
X1009778D01*
X1018665Y702732D02*
Y705695D01*
Y704214D01*
X1009778D01*
X1011260Y702732D01*
X957666Y756963D02*
X956184Y755482D01*
Y752519D01*
X957666Y751038D01*
X959147D01*
X960628Y752519D01*
Y755482D01*
X962109Y756963D01*
X963590D01*
X965072Y755482D01*
Y752519D01*
X963590Y751038D01*
X965072Y764369D02*
X956184D01*
X960628Y759925D01*
Y765850D01*
X1088222Y899965D02*
X1086740Y898484D01*
Y895521D01*
X1088222Y894040D01*
X1089703D01*
X1091184Y895521D01*
Y898484D01*
X1092665Y899965D01*
X1094146D01*
X1095628Y898484D01*
Y895521D01*
X1094146Y894040D01*
X1095628Y908852D02*
Y902927D01*
X1089703Y908852D01*
X1088222D01*
X1086740Y907371D01*
Y904408D01*
X1088222Y902927D01*
X961730Y663702D02*
X960248Y662221D01*
Y659258D01*
X961730Y657777D01*
X963211D01*
X964692Y659258D01*
Y662221D01*
X966173Y663702D01*
X967654D01*
X969136Y662221D01*
Y659258D01*
X967654Y657777D01*
X969136Y666664D02*
Y669627D01*
Y668146D01*
X960248D01*
X961730Y666664D01*
X1152778Y735798D02*
X1143890D01*
Y740242D01*
X1145372Y741723D01*
X1148334D01*
X1149815Y740242D01*
Y735798D01*
X1145372Y744685D02*
X1143890Y746166D01*
Y749129D01*
X1145372Y750610D01*
X1146853D01*
X1148334Y749129D01*
X1149815Y750610D01*
X1151296D01*
X1152778Y749129D01*
Y746166D01*
X1151296Y744685D01*
X1149815D01*
X1148334Y746166D01*
X1146853Y744685D01*
X1145372D01*
X1148334Y746166D02*
Y749129D01*
X984884Y918424D02*
X975996D01*
Y922868D01*
X977478Y924349D01*
X980440D01*
X981921Y922868D01*
Y918424D01*
X975996Y927311D02*
Y933236D01*
X977478D01*
X983402Y927311D01*
X984884D01*
X943736Y873720D02*
X934848D01*
Y878164D01*
X936330Y879645D01*
X939292D01*
X940773Y878164D01*
Y873720D01*
X936330Y882607D02*
X934848Y884088D01*
Y887051D01*
X936330Y888532D01*
X937811D01*
X939292Y887051D01*
Y885570D01*
Y887051D01*
X940773Y888532D01*
X942254D01*
X943736Y887051D01*
Y884088D01*
X942254Y882607D01*
X947800Y787360D02*
X938912D01*
Y791804D01*
X940394Y793285D01*
X943356D01*
X944837Y791804D01*
Y787360D01*
X947800Y802172D02*
Y796247D01*
X941875Y802172D01*
X940394D01*
X938912Y800691D01*
Y797728D01*
X940394Y796247D01*
X946784Y612819D02*
X937896D01*
Y617263D01*
X939378Y618744D01*
X942340D01*
X943821Y617263D01*
Y612819D01*
X946784Y621706D02*
Y624669D01*
Y623188D01*
X937896D01*
X939378Y621706D01*
X1103504Y947928D02*
Y942003D01*
X1107948D01*
Y944966D01*
Y942003D01*
X1112392D01*
Y950890D02*
Y953853D01*
Y952372D01*
X1103504D01*
X1104986Y950890D01*
X1096646Y672806D02*
X1105534D01*
Y677250D01*
X1104052Y678731D01*
X1098128D01*
X1096646Y677250D01*
Y672806D01*
X1105534Y686137D02*
X1096646D01*
X1101090Y681693D01*
Y687618D01*
X1130682Y674330D02*
X1139570D01*
Y678774D01*
X1138088Y680255D01*
X1132164D01*
X1130682Y678774D01*
Y674330D01*
X1132164Y683217D02*
X1130682Y684698D01*
Y687661D01*
X1132164Y689142D01*
X1133645D01*
X1135126Y687661D01*
Y686180D01*
Y687661D01*
X1136607Y689142D01*
X1138088D01*
X1139570Y687661D01*
Y684698D01*
X1138088Y683217D01*
X1021718Y877951D02*
X1030605D01*
Y882395D01*
X1029124Y883876D01*
X1023199D01*
X1021718Y882395D01*
Y877951D01*
X1030605Y886838D02*
Y889800D01*
Y888319D01*
X1021718D01*
X1023199Y886838D01*
X1215772Y873974D02*
X1224660D01*
Y878418D01*
X1223178Y879899D01*
X1217254D01*
X1215772Y878418D01*
Y873974D01*
X1217254Y882861D02*
X1215772Y884342D01*
Y887305D01*
X1217254Y888786D01*
X1223178D01*
X1224660Y887305D01*
Y884342D01*
X1223178Y882861D01*
X1217254D01*
M02*
