G04*
G04 #@! TF.GenerationSoftware,Altium Limited,Altium Designer,23.5.1 (21)*
G04*
G04 Layer_Color=8388736*
%FSLAX44Y44*%
%MOMM*%
G71*
G04*
G04 #@! TF.SameCoordinates,3DE8B106-AB94-4B2A-A5C1-010116C31EDB*
G04*
G04*
G04 #@! TF.FilePolarity,Negative*
G04*
G01*
G75*
%ADD30O,4.2672X2.2352*%
%ADD31R,1.4732X1.0668*%
%ADD32R,2.7432X1.0668*%
%ADD33R,0.7016X1.8516*%
%ADD34R,0.4016X1.8516*%
%ADD35R,1.1832X1.1332*%
%ADD36R,1.4532X1.2032*%
%ADD37R,2.2032X1.2032*%
%ADD38O,0.5080X1.2192*%
G04:AMPARAMS|DCode=39|XSize=0.4516mm|YSize=0.7016mm|CornerRadius=0mm|HoleSize=0mm|Usage=FLASHONLY|Rotation=0.000|XOffset=0mm|YOffset=0mm|HoleType=Round|Shape=Octagon|*
%AMOCTAGOND39*
4,1,8,-0.1129,0.3508,0.1129,0.3508,0.2258,0.2379,0.2258,-0.2379,0.1129,-0.3508,-0.1129,-0.3508,-0.2258,-0.2379,-0.2258,0.2379,-0.1129,0.3508,0.0*
%
%ADD39OCTAGOND39*%

%ADD40R,1.1332X1.1832*%
%ADD41R,0.4516X0.7016*%
%ADD42R,0.5080X1.2192*%
%ADD43R,1.2032X1.2032*%
%ADD44O,1.2032X1.8032*%
%ADD45O,1.2032X2.3032*%
%ADD46R,1.7272X1.7272*%
%ADD47C,1.7272*%
%ADD48C,2.8032*%
%ADD49C,1.6764*%
G04:AMPARAMS|DCode=50|XSize=1.6764mm|YSize=1.6764mm|CornerRadius=0mm|HoleSize=0mm|Usage=FLASHONLY|Rotation=90.000|XOffset=0mm|YOffset=0mm|HoleType=Round|Shape=Octagon|*
%AMOCTAGOND50*
4,1,8,0.4191,0.8382,-0.4191,0.8382,-0.8382,0.4191,-0.8382,-0.4191,-0.4191,-0.8382,0.4191,-0.8382,0.8382,-0.4191,0.8382,0.4191,0.4191,0.8382,0.0*
%
%ADD50OCTAGOND50*%

%ADD51R,1.9532X2.1032*%
%ADD52O,1.5240X1.7272*%
%ADD53C,0.8382*%
D30*
X1209294Y948690D02*
D03*
D31*
X1183894Y933450D02*
D03*
Y963930D02*
D03*
D32*
Y948690D02*
D03*
D33*
X1012602Y912938D02*
D03*
X1004852D02*
D03*
X1069352D02*
D03*
X1061602D02*
D03*
D34*
X1019602D02*
D03*
X1024602D02*
D03*
X1029602D02*
D03*
X1034602D02*
D03*
X1054602D02*
D03*
X1049602D02*
D03*
X1044602D02*
D03*
X1039602D02*
D03*
D35*
X1220724Y915068D02*
D03*
Y899668D02*
D03*
X1151128Y688086D02*
D03*
Y672686D02*
D03*
X1117854Y687578D02*
D03*
Y672178D02*
D03*
D36*
X1074166Y884174D02*
D03*
X1044666D02*
D03*
D37*
X988060Y642620D02*
D03*
Y685038D02*
D03*
D38*
X1059485Y721614D02*
D03*
X1033475Y661670D02*
D03*
X1039978D02*
D03*
X1046480D02*
D03*
X1052982D02*
D03*
X1059485D02*
D03*
X1065962D02*
D03*
X1072464D02*
D03*
X1078967D02*
D03*
X1085469D02*
D03*
X1026973Y721614D02*
D03*
X1033475D02*
D03*
X1039978D02*
D03*
X1046480D02*
D03*
X1052982D02*
D03*
X1065962D02*
D03*
X1072464D02*
D03*
X1078967D02*
D03*
X1085469D02*
D03*
D39*
X1062990Y767588D02*
D03*
X1056490Y787588D02*
D03*
X1062990D02*
D03*
X1069490D02*
D03*
Y767588D02*
D03*
D40*
X1142238Y947166D02*
D03*
X1126838D02*
D03*
D41*
X1056490Y767588D02*
D03*
D42*
X1026973Y661670D02*
D03*
D43*
X990600Y718058D02*
D03*
Y798058D02*
D03*
D44*
X993902Y964438D02*
D03*
X1080302D02*
D03*
D45*
Y922638D02*
D03*
X993902D02*
D03*
D46*
X952246Y820674D02*
D03*
X945642Y565912D02*
D03*
X963676Y879856D02*
D03*
D47*
X977646Y820674D02*
D03*
Y846074D02*
D03*
X1003046Y820674D02*
D03*
X1130046Y846074D02*
D03*
Y820674D02*
D03*
X1104646Y846074D02*
D03*
X1148842Y565912D02*
D03*
Y591312D02*
D03*
X945642D02*
D03*
X971042Y565912D02*
D03*
Y591312D02*
D03*
X996442Y565912D02*
D03*
Y591312D02*
D03*
X1021842Y565912D02*
D03*
Y591312D02*
D03*
X1047242Y565912D02*
D03*
Y591312D02*
D03*
X1072642Y565912D02*
D03*
Y591312D02*
D03*
X1098042Y565912D02*
D03*
Y591312D02*
D03*
X1123442Y565912D02*
D03*
Y591312D02*
D03*
X989076Y879856D02*
D03*
X1079246Y820674D02*
D03*
Y846074D02*
D03*
X1104646Y820674D02*
D03*
X1053846Y846074D02*
D03*
Y820674D02*
D03*
X1028446Y846074D02*
D03*
Y820674D02*
D03*
X1003046Y846074D02*
D03*
X952246D02*
D03*
D48*
X1207084Y854272D02*
D03*
Y724272D02*
D03*
D49*
X1180084Y824272D02*
D03*
Y779272D02*
D03*
Y799272D02*
D03*
D50*
Y754272D02*
D03*
D51*
X1111716Y896366D02*
D03*
X1201716D02*
D03*
D52*
X1136716D02*
D03*
X1176716D02*
D03*
X1156716D02*
D03*
D53*
X1017270Y745236D02*
D03*
X1059180Y710692D02*
D03*
X1008888Y638048D02*
D03*
X1062990Y758952D02*
D03*
X1120902Y645414D02*
D03*
X1204722Y914908D02*
D03*
X1036574Y858774D02*
D03*
X1041146Y831850D02*
D03*
X1027938Y879348D02*
D03*
X1007110Y875538D02*
D03*
X1133094Y957072D02*
D03*
X1117600Y743966D02*
D03*
X1101598Y871220D02*
D03*
X1012190Y677926D02*
D03*
X1170940Y661162D02*
D03*
X1002284Y671068D02*
D03*
X1057738Y734232D02*
D03*
X990854Y774446D02*
D03*
X1158658Y934302D02*
D03*
X1062482Y780034D02*
D03*
X1049782Y928878D02*
D03*
X1068832Y800862D02*
D03*
M02*
