G04*
G04 #@! TF.GenerationSoftware,Altium Limited,Altium Designer,23.5.1 (21)*
G04*
G04 Layer_Color=16711935*
%FSLAX44Y44*%
%MOMM*%
G71*
G04*
G04 #@! TF.SameCoordinates,3DE8B106-AB94-4B2A-A5C1-010116C31EDB*
G04*
G04*
G04 #@! TF.FilePolarity,Negative*
G04*
G01*
G75*
%ADD35R,1.1832X1.1332*%
%ADD40R,1.1332X1.1832*%
%ADD44O,1.2032X1.8032*%
%ADD45O,1.2032X2.3032*%
%ADD46R,1.7272X1.7272*%
%ADD47C,1.7272*%
%ADD48C,2.8032*%
%ADD49C,1.6764*%
G04:AMPARAMS|DCode=50|XSize=1.6764mm|YSize=1.6764mm|CornerRadius=0mm|HoleSize=0mm|Usage=FLASHONLY|Rotation=90.000|XOffset=0mm|YOffset=0mm|HoleType=Round|Shape=Octagon|*
%AMOCTAGOND50*
4,1,8,0.4191,0.8382,-0.4191,0.8382,-0.8382,0.4191,-0.8382,-0.4191,-0.4191,-0.8382,0.4191,-0.8382,0.8382,-0.4191,0.8382,0.4191,0.4191,0.8382,0.0*
%
%ADD50OCTAGOND50*%

%ADD51R,1.9532X2.1032*%
%ADD52O,1.5240X1.7272*%
%ADD53C,0.8382*%
%ADD66R,1.0316X1.0816*%
%ADD67R,1.0816X1.0316*%
D35*
X1142148Y948018D02*
D03*
Y932618D02*
D03*
D40*
X1120996Y623824D02*
D03*
X1136396D02*
D03*
X1072040Y870712D02*
D03*
X1056640D02*
D03*
X1071626Y890524D02*
D03*
X1056226D02*
D03*
X1035812Y869950D02*
D03*
X1020412D02*
D03*
X1151382Y649478D02*
D03*
X1135982D02*
D03*
X1176622Y915416D02*
D03*
X1192022D02*
D03*
X1032002Y764794D02*
D03*
X1047402D02*
D03*
X1020318Y890524D02*
D03*
X1035718D02*
D03*
D44*
X993902Y964438D02*
D03*
X1080302D02*
D03*
D45*
Y922638D02*
D03*
X993902D02*
D03*
D46*
X952246Y820674D02*
D03*
X945642Y565912D02*
D03*
X963676Y879856D02*
D03*
D47*
X977646Y820674D02*
D03*
Y846074D02*
D03*
X1003046Y820674D02*
D03*
X1130046Y846074D02*
D03*
Y820674D02*
D03*
X1104646Y846074D02*
D03*
X1148842Y565912D02*
D03*
Y591312D02*
D03*
X945642D02*
D03*
X971042Y565912D02*
D03*
Y591312D02*
D03*
X996442Y565912D02*
D03*
Y591312D02*
D03*
X1021842Y565912D02*
D03*
Y591312D02*
D03*
X1047242Y565912D02*
D03*
Y591312D02*
D03*
X1072642Y565912D02*
D03*
Y591312D02*
D03*
X1098042Y565912D02*
D03*
Y591312D02*
D03*
X1123442Y565912D02*
D03*
Y591312D02*
D03*
X989076Y879856D02*
D03*
X1079246Y820674D02*
D03*
Y846074D02*
D03*
X1104646Y820674D02*
D03*
X1053846Y846074D02*
D03*
Y820674D02*
D03*
X1028446Y846074D02*
D03*
Y820674D02*
D03*
X1003046Y846074D02*
D03*
X952246D02*
D03*
D48*
X1207084Y854272D02*
D03*
Y724272D02*
D03*
D49*
X1180084Y824272D02*
D03*
Y779272D02*
D03*
Y799272D02*
D03*
D50*
Y754272D02*
D03*
D51*
X1111716Y896366D02*
D03*
X1201716D02*
D03*
D52*
X1136716D02*
D03*
X1176716D02*
D03*
X1156716D02*
D03*
D53*
X1017270Y745236D02*
D03*
X1059180Y710692D02*
D03*
X1008888Y638048D02*
D03*
X1062990Y758952D02*
D03*
X1120902Y645414D02*
D03*
X1204722Y914908D02*
D03*
X1036574Y858774D02*
D03*
X1041146Y831850D02*
D03*
X1027938Y879348D02*
D03*
X1007110Y875538D02*
D03*
X1133094Y957072D02*
D03*
X1117600Y743966D02*
D03*
X1101598Y871220D02*
D03*
X1012190Y677926D02*
D03*
X1170940Y661162D02*
D03*
X1002284Y671068D02*
D03*
X1057738Y734232D02*
D03*
X990854Y774446D02*
D03*
X1158658Y934302D02*
D03*
X1062482Y780034D02*
D03*
X1049782Y928878D02*
D03*
X1068832Y800862D02*
D03*
D66*
X1137826Y967232D02*
D03*
X1122426D02*
D03*
X1065690Y641350D02*
D03*
X1063150Y745998D02*
D03*
X1050290Y641350D02*
D03*
X1047750Y745998D02*
D03*
D67*
X1086866Y770382D02*
D03*
X1121918Y947166D02*
D03*
Y931766D02*
D03*
X1086866Y785782D02*
D03*
M02*
